<?xml version="1.0" encoding="UTF-8"?>
<svg id="Layer_1" xmlns="http://www.w3.org/2000/svg" version="1.1" xmlns:xlink="http://www.w3.org/1999/xlink" viewBox="0 0 2160 2160">
  <!-- Generator: Adobe Illustrator 29.5.1, SVG Export Plug-In . SVG Version: 2.1.0 Build 141)  -->
  <defs>
    <style>
      .st0 {
        fill: #fff;
      }

      .st1 {
        filter: url(#drop-shadow-1);
      }

      .st2 {
        fill: #ff7800;
      }
    </style>
    <filter id="drop-shadow-1" x="605" y="241" width="988" height="1718" filterUnits="userSpaceOnUse">
      <feOffset dx="19" dy="20"/>
      <feGaussianBlur result="blur" stdDeviation="19"/>
      <feFlood flood-color="#000" flood-opacity=".4"/>
      <feComposite in2="blur" operator="in"/>
      <feComposite in="SourceGraphic"/>
    </filter>
  </defs>
  <g class="st1">
    <path class="st0" d="M990.5,1125.1c8.5-4.1,14.1-11.1,16.9-20.8l25.9-87.4h-15.4c-5.8,13.5-13.5,23.1-23.3,28.9-9.8,5.8-23.5,8.6-41.3,8.6h-79.6c-9,0-15.9-2.2-20.6-6.8-4.8-4.5-7.1-11.1-7.1-19.9.2-2.8.6-5.9,1.1-9.4.1-.8.3-1.7.4-2.6h0c29.3-368.3,306.6-666.5,665.6-726,5-.8,4.6-8-.4-8.4-20.5-1.6-41.2-2.4-62.1-2.4-420.8,0-769,324.4-801.8,736.8,0,0-3.8,43.1-4.6,52.5-.3,4.3-1,13.3-1,16.3,0,15.8,5,23,14.7,32.5,9.8,9.5,23,14.3,39.8,14.3h251.8c18.8,0,32.4-2.1,40.9-6.2Z"/>
    <path class="st2" d="M1513.2,1870.2c-326-54-585.5-304.7-652.4-626.2-2.1-9.9-10.7-17-20.8-17h-150.8c-13.6,0-23.7,12.5-20.8,25.8,79.1,359.3,399.3,628.1,782.3,628.1s41.6-.8,62-2.4c5-.4,5.3-7.6.4-8.4Z"/>
  </g>
</svg>