<?xml version="1.0" encoding="UTF-8"?>
<svg id="Layer_2" data-name="Layer 2" xmlns="http://www.w3.org/2000/svg" viewBox="0 0 487.78 894.7">
  <defs>
    <style>
      .cls-1 {
        fill: #fff;
      }

      .cls-2 {
        fill: #ff7800;
      }
    </style>
  </defs>
  <g id="Camada_1" data-name="Camada 1">
    <path class="cls-1" d="M171.07,475.99c10.48,0,18.09-1.15,22.84-3.46,4.75-2.31,7.89-6.18,9.43-11.63l14.46-48.82h-8.59c-3.22,7.54-7.54,12.92-12.99,16.13-5.45,3.22-13.13,4.82-23.05,4.82h-44.43c-5.03,0-8.87-1.26-11.53-3.77-2.65-2.52-3.98-6.21-3.98-11.1.14-1.54.35-3.28.63-5.24.06-.45.15-.95.24-1.48h0C130.43,205.75,285.3,39.23,485.79,6.04c2.77-.46,2.59-4.49-.21-4.71-11.44-.88-23-1.33-34.67-1.33C215.94,0,21.45,181.18,3.15,411.45c0,0-2.14,24.04-2.56,29.34-.19,2.4-.58,7.43-.58,9.11,0,8.8,2.78,12.82,8.23,18.13,5.45,5.31,12.85,7.96,22.21,7.96h140.63Z"/>
    <path class="cls-2" d="M485.79,888.67c-182.04-30.14-326.97-170.19-364.34-349.68-1.15-5.51-5.98-9.47-11.61-9.47H25.63c-7.57,0-13.23,7.01-11.6,14.4,44.15,200.64,222.98,350.78,436.89,350.78,11.66,0,23.22-.45,34.65-1.33,2.8-.21,2.98-4.25.22-4.71Z"/>
  </g>
</svg>